# xmcd
#
# Track frame offsets: 
#        150
#        18872
#        34907
#        51812
#        69650
#        82827
#        102540
#        115270
#        128315
#        149772
#        161202
#        176370
#
# Disc length: 2566 seconds
#
# Revision: 0
# Processed by: cddbd v1.5.2PL0 Copyright (c) Steve Scherf et al.
# Submitted via: ExactAudioCopy v0.99pb4
#
DISCID=9e0a040c
DTITLE=Ola Dixon - Labor of Love
DYEAR=1999
DGENRE=Blues
TTITLE0=I only Have Love
TTITLE1=One More Chance
TTITLE2=Won't be down long
TTITLE3=My Darkest Night
TTITLE4=Take My Love (I want to give it all to you)
TTITLE5=Baby please set a date
TTITLE6=Since You're Home
TTITLE7=Jazz
TTITLE8=Searching for my Love
TTITLE9=Baby I'm gone
TTITLE10=I need your Love so Bad
TTITLE11=Victory Strut
EXTD=
EXTT0=
EXTT1=
EXTT2=
EXTT3=
EXTT4=
EXTT5=
EXTT6=
EXTT7=
EXTT8=
EXTT9=
EXTT10=
EXTT11=
PLAYORDER=
